<?xml version="1.0" encoding="utf-8"?>
<!-- Generator: Adobe Illustrator 24.1.1, SVG Export Plug-In . SVG Version: 6.00 Build 0)  -->
<svg version="1.1" id="Capa_1" xmlns="http://www.w3.org/2000/svg" xmlns:xlink="http://www.w3.org/1999/xlink" x="0px" y="0px"
	 viewBox="0 0 505.71 202.52" style="enable-background:new 0 0 505.71 202.52;" xml:space="preserve">
<style type="text/css">
	.st0{fill:url(#SVGID_1_);}
	.st1{fill:url(#SVGID_2_);}
	.st2{fill:url(#SVGID_3_);}
	.st3{fill:url(#SVGID_4_);}
	.st4{fill:url(#SVGID_5_);}
	.st5{fill:url(#SVGID_6_);}
	.st6{fill:url(#SVGID_7_);}
	.st7{fill:url(#SVGID_8_);}
	.st8{fill:url(#SVGID_9_);}
	.st9{fill:url(#SVGID_10_);}
	.st10{fill:url(#SVGID_11_);}
	.st11{fill:url(#SVGID_12_);}
	.st12{fill:url(#SVGID_13_);}
	.st13{fill:url(#SVGID_14_);}
	.st14{fill:url(#SVGID_15_);}
	.st15{fill:url(#SVGID_16_);}
	.st16{fill:url(#SVGID_17_);}
	.st17{fill:url(#SVGID_18_);}
	.st18{fill:url(#SVGID_19_);}
	.st19{fill:url(#SVGID_20_);}
</style>
<g>
	<linearGradient id="SVGID_1_" gradientUnits="userSpaceOnUse" x1="98.9251" y1="229.6503" x2="96.6515" y2="18.1977">
		<stop  offset="0" style="stop-color:#60A5FA"/>
		<stop  offset="1" style="stop-color:#1E40AF"/>
	</linearGradient>
	<path class="st0" d="M37.63,192.69c8.9-3.6,17.89-0.54,26.85-0.05c4.18,0.22,9.37,2.84,11.81-2.25c2.33-4.85-1.6-8.47-4.82-11.79
		c-2.8-2.89-6.42-5.45-4.42-12.46c5.16,10.13,13.58,8.88,21.61,9.38c2.26,0.14,5.09,1.75,6.46,3.58c4.62,6.15,10.64,8.08,17.84,7.01
		c21.24-3.17,39.27-11.36,49.13-32.03c0.6-1.25,1.12-2.55,1.51-3.87c0.14-0.47-0.19-1.09-0.42-2.21
		c-4.59,4.22-8.75,8.33-13.21,12.07c-6.11,5.12-13.32,6.48-20.67,3.68c-5.23-1.99-9.51-2.53-13.44,2.74
		c7.14-7.38,2.88-15.05,2.18-23.93c-2.41,2.09-3.86,3.29-5.25,4.57c-12.36,11.36-26.4,14.55-42.48,9.28c-2.16-0.71-4.98,0.58-7.48,1
		c-0.35,0.06-0.65,0.44-0.98,0.67c-17.39,11.91-27.47,5.01-32.84-14.12c-3.19-11.4,0.02-22.47,4.47-33.03
		c9.02-21.39,22.33-39.25,42.54-51.51c8.19-4.96,16.62-6.31,25.67-3.43c34.17,10.85,56.76,33.63,64.84,68.34
		c5.51,23.66-4.27,43.97-22.99,58.98c-24.67,19.77-52.58,23.61-82.66,14.64C53.37,195.69,45.53,194.44,37.63,192.69z M94.38,129.72
		c3.06,2.1,5.47,0.56,7.68-2.41c2.25-3.03,4.38-6.18,6.91-8.96c4.59-5.05,7.52-10.54,4.29-17.26c-3.33-6.94-9.43-10.47-16.94-9.93
		c-8.63,0.63-17.46,1.43-25.69,3.88c-7.79,2.31-15.28,7.13-16.85,15.94c-0.84,4.73-2.91,7.55-6.19,10.12
		c-2.49,1.96-5.43,3.39-7.76,5.5c-1.46,1.32-3.35,3.71-3.03,5.2c1.93,9.12,9.62,19.77,21.75,16.83c3.42-0.83,6.86-1.59,10.29-2.38
		c-0.26,0.7-0.53,1.39-0.79,2.09c2.34,1.85,4.43,4.69,7.07,5.37c12.51,3.24,23.6-0.58,33.18-8.64c8.88-7.48,9.3-15.47,2.05-24.88
		C104.21,122.05,104.21,135.12,94.38,129.72z M131.45,113c-0.54-0.05-1.07-0.1-1.61-0.15c-0.55,2.18-0.87,4.45-1.73,6.5
		c-0.66,1.58-1.85,3.93-3.06,4.1c-3.87,0.53-3.67,2.98-3.55,5.64c0.07,1.54,0.81,3.37,0.22,4.57c-3.22,6.6-0.76,12.63,0.87,19.04
		c1.71,6.74,6.09,9.41,12.05,9.15c5.01-0.22,10.14-1.64,14.82-3.52c2.07-0.83,3.27-4.05,4.67-6.31c1.22-1.96,1.72-4.57,3.32-6.05
		c6.32-5.89,5.12-14.06-2.66-17.04c-1.6-0.61-2.83-2.14-4.38-2.95c-2.74-1.43-5.61-3.73-8.4-3.7c-5.28,0.06-8.25-1.57-9.1-6.86
		C132.77,114.55,131.96,113.8,131.45,113z"/>
	<linearGradient id="SVGID_2_" gradientUnits="userSpaceOnUse" x1="116.5013" y1="229.4613" x2="114.2276" y2="18.0087">
		<stop  offset="0" style="stop-color:#60A5FA"/>
		<stop  offset="1" style="stop-color:#1E40AF"/>
	</linearGradient>
	<path class="st1" d="M112.5,53.98c-7.87-0.96-13.03-4.62-16.58-10.64c-6.75-11.44-3.99-28.32,5.89-37.2
		c11.82-10.62,27.03-7.07,32.76,7.65c4.42,11.37,0.69,26.69-9,33.98C121.8,50.61,116.89,51.95,112.5,53.98z"/>
	<linearGradient id="SVGID_3_" gradientUnits="userSpaceOnUse" x1="61.4403" y1="230.0534" x2="59.1666" y2="18.6007">
		<stop  offset="0" style="stop-color:#60A5FA"/>
		<stop  offset="1" style="stop-color:#1E40AF"/>
	</linearGradient>
	<path class="st2" d="M37.06,30.99c-0.05-12.71,2.7-19.91,10.9-23.62c8.46-3.84,15.99-0.93,22.38,4.9
		c8.76,7.99,12.97,18.03,10.61,29.88c-3.29,16.52-18.88,21.64-32.04,10.83C41.17,46.63,37.01,37.44,37.06,30.99z"/>
	<linearGradient id="SVGID_4_" gradientUnits="userSpaceOnUse" x1="160.5294" y1="228.9879" x2="158.2557" y2="17.5353">
		<stop  offset="0" style="stop-color:#60A5FA"/>
		<stop  offset="1" style="stop-color:#1E40AF"/>
	</linearGradient>
	<path class="st3" d="M180.99,50.14c-0.1,14.45-11.89,26.54-25.82,26.5c-11.26-0.03-18.97-8.15-18.87-19.89
		c0.12-14.74,12.11-27.13,26.11-26.97C173.3,29.9,181.07,38.42,180.99,50.14z"/>
	<linearGradient id="SVGID_5_" gradientUnits="userSpaceOnUse" x1="24.1216" y1="230.4547" x2="21.8479" y2="19.002">
		<stop  offset="0" style="stop-color:#60A5FA"/>
		<stop  offset="1" style="stop-color:#1E40AF"/>
	</linearGradient>
	<path class="st4" d="M0,65.65c0.04-10.8,7.69-18.27,18.5-18.06C31.76,47.85,44,59.67,44.76,72.97
		c0.81,14.16-11.62,23.19-25.78,18.74C7.69,88.16-0.04,77.54,0,65.65z"/>
</g>
<g>
	<linearGradient id="SVGID_6_" gradientUnits="userSpaceOnUse" x1="490.3982" y1="176.1945" x2="192.5455" y2="79.5629">
		<stop  offset="0" style="stop-color:#60A5FA"/>
		<stop  offset="1" style="stop-color:#1E40AF"/>
	</linearGradient>
	<path class="st5" d="M247.65,111.8h-11.16V82.66l-8.07,18.91h-7.74l-8.07-18.91v29.14h-10.58V68.28h13.03l9.79,21.83l9.76-21.83
		h13.03V111.8z"/>
	<linearGradient id="SVGID_7_" gradientUnits="userSpaceOnUse" x1="493.2373" y1="167.4432" x2="195.3847" y2="70.8117">
		<stop  offset="0" style="stop-color:#60A5FA"/>
		<stop  offset="1" style="stop-color:#1E40AF"/>
	</linearGradient>
	<path class="st6" d="M278.04,108.32c-0.57,0.43-1.27,0.95-2.1,1.55c-0.84,0.6-1.63,1.08-2.37,1.43c-1.03,0.47-2.1,0.81-3.21,1.04
		c-1.11,0.22-2.33,0.34-3.65,0.34c-3.12,0-5.73-0.96-7.83-2.89c-2.1-1.93-3.16-4.39-3.16-7.39c0-2.4,0.54-4.35,1.61-5.87
		c1.07-1.52,2.59-2.72,4.56-3.59c1.95-0.88,4.36-1.5,7.25-1.87c2.88-0.37,5.87-0.64,8.97-0.82v-0.18c0-1.81-0.74-3.06-2.22-3.76
		c-1.48-0.69-3.66-1.04-6.55-1.04c-1.73,0-3.58,0.31-5.55,0.92c-1.97,0.61-3.38,1.09-4.24,1.42h-0.96v-7.92
		c1.11-0.29,2.92-0.64,5.42-1.04c2.5-0.4,5.01-0.6,7.52-0.6c5.98,0,10.3,0.92,12.96,2.76c2.66,1.84,3.99,4.73,3.99,8.66v22.33
		h-10.43V108.32z M278.04,103.21V96.4c-1.42,0.12-2.96,0.28-4.62,0.48c-1.66,0.2-2.91,0.44-3.77,0.71
		c-1.05,0.33-1.86,0.81-2.41,1.44c-0.56,0.63-0.83,1.46-0.83,2.49c0,0.68,0.06,1.23,0.18,1.66c0.12,0.43,0.41,0.83,0.88,1.22
		c0.45,0.39,0.98,0.67,1.61,0.86c0.62,0.18,1.6,0.28,2.92,0.28c1.05,0,2.12-0.21,3.2-0.64
		C276.27,104.47,277.22,103.91,278.04,103.21z"/>
	<linearGradient id="SVGID_8_" gradientUnits="userSpaceOnUse" x1="497.0285" y1="155.7574" x2="199.1759" y2="59.1259">
		<stop  offset="0" style="stop-color:#60A5FA"/>
		<stop  offset="1" style="stop-color:#1E40AF"/>
	</linearGradient>
	<path class="st7" d="M326.67,101.39c0,3.39-1.52,6.12-4.56,8.2c-3.04,2.07-7.2,3.11-12.48,3.11c-2.92,0-5.57-0.27-7.95-0.82
		c-2.38-0.55-4.29-1.15-5.73-1.81v-8.65h0.96c0.53,0.37,1.13,0.77,1.83,1.21c0.69,0.44,1.67,0.91,2.94,1.42
		c1.09,0.45,2.33,0.83,3.71,1.15c1.38,0.32,2.86,0.48,4.44,0.48c2.06,0,3.59-0.23,4.59-0.69c0.99-0.46,1.49-1.13,1.49-2.03
		c0-0.8-0.29-1.38-0.88-1.74c-0.58-0.36-1.69-0.71-3.33-1.04c-0.78-0.18-1.84-0.37-3.17-0.57c-1.33-0.2-2.55-0.45-3.64-0.75
		c-2.98-0.78-5.19-1.99-6.63-3.64c-1.44-1.65-2.16-3.7-2.16-6.15c0-3.16,1.49-5.78,4.49-7.88c2.99-2.09,7.08-3.14,12.26-3.14
		c2.45,0,4.81,0.25,7.06,0.75c2.25,0.5,4.01,1.03,5.27,1.59v8.3h-0.91c-1.56-1.07-3.34-1.94-5.33-2.62c-2-0.67-4.02-1.01-6.06-1.01
		c-1.69,0-3.12,0.23-4.28,0.7c-1.16,0.47-1.74,1.13-1.74,1.99c0,0.78,0.26,1.37,0.79,1.78c0.53,0.41,1.76,0.82,3.71,1.23
		c1.07,0.21,2.23,0.42,3.46,0.63c1.24,0.2,2.48,0.46,3.73,0.77c2.77,0.72,4.81,1.86,6.14,3.4C326,97.14,326.67,99.07,326.67,101.39z
		"/>
	<linearGradient id="SVGID_9_" gradientUnits="userSpaceOnUse" x1="500.7793" y1="144.1962" x2="202.9267" y2="47.5646">
		<stop  offset="0" style="stop-color:#60A5FA"/>
		<stop  offset="1" style="stop-color:#1E40AF"/>
	</linearGradient>
	<path class="st8" d="M350.75,112.67c-2.86,0-5.48-0.34-7.85-1.02c-2.37-0.68-4.43-1.73-6.18-3.16c-1.73-1.42-3.08-3.21-4.03-5.38
		c-0.96-2.16-1.43-4.69-1.43-7.6c0-3.06,0.51-5.7,1.53-7.92c1.02-2.22,2.45-4.06,4.28-5.52c1.77-1.38,3.82-2.4,6.14-3.04
		c2.32-0.64,4.72-0.96,7.22-0.96c2.24,0,4.31,0.24,6.2,0.73c1.89,0.49,3.65,1.12,5.29,1.9v8.97h-1.49c-0.41-0.35-0.9-0.76-1.47-1.23
		c-0.57-0.47-1.28-0.93-2.11-1.37c-0.8-0.43-1.67-0.78-2.63-1.07c-0.95-0.28-2.06-0.42-3.33-0.42c-2.8,0-4.96,0.89-6.46,2.67
		c-1.51,1.78-2.26,4.2-2.26,7.26c0,3.16,0.77,5.55,2.32,7.19c1.55,1.64,3.74,2.45,6.58,2.45c1.32,0,2.51-0.15,3.57-0.45
		c1.06-0.3,1.94-0.66,2.64-1.07c0.66-0.39,1.24-0.8,1.75-1.23c0.51-0.43,0.97-0.85,1.4-1.26h1.49v8.97
		c-1.66,0.78-3.38,1.4-5.19,1.86C354.92,112.44,352.93,112.67,350.75,112.67z"/>
	<linearGradient id="SVGID_10_" gradientUnits="userSpaceOnUse" x1="504.0284" y1="134.1815" x2="206.1757" y2="37.5499">
		<stop  offset="0" style="stop-color:#60A5FA"/>
		<stop  offset="1" style="stop-color:#1E40AF"/>
	</linearGradient>
	<path class="st9" d="M402.41,95.4c0,5.4-1.57,9.65-4.72,12.76c-3.15,3.11-7.56,4.66-13.25,4.66c-5.69,0-10.11-1.55-13.25-4.66
		c-3.15-3.11-4.72-7.36-4.72-12.76c0-5.44,1.58-9.7,4.75-12.8c3.17-3.1,7.57-4.65,13.22-4.65c5.73,0,10.16,1.56,13.28,4.68
		C400.85,85.75,402.41,90.01,402.41,95.4z M389.47,103.38c0.68-0.84,1.19-1.85,1.53-3.02c0.34-1.18,0.51-2.81,0.51-4.89
		c0-1.93-0.18-3.55-0.53-4.85c-0.35-1.31-0.84-2.35-1.46-3.13c-0.62-0.8-1.37-1.36-2.25-1.69c-0.88-0.33-1.82-0.5-2.83-0.5
		c-1.01,0-1.91,0.14-2.7,0.41c-0.79,0.27-1.54,0.82-2.27,1.64c-0.64,0.76-1.15,1.8-1.53,3.13c-0.38,1.33-0.57,2.99-0.57,5
		c0,1.79,0.17,3.35,0.5,4.66c0.33,1.32,0.82,2.37,1.46,3.17c0.62,0.76,1.37,1.32,2.24,1.67c0.87,0.35,1.86,0.53,2.97,0.53
		c0.95,0,1.87-0.16,2.73-0.48C388.13,104.68,388.86,104.14,389.47,103.38z"/>
	<linearGradient id="SVGID_11_" gradientUnits="userSpaceOnUse" x1="508.7111" y1="119.7475" x2="210.8585" y2="23.1159">
		<stop  offset="0" style="stop-color:#60A5FA"/>
		<stop  offset="1" style="stop-color:#1E40AF"/>
	</linearGradient>
	<path class="st10" d="M430.93,111.51c-1.13,0.29-2.33,0.52-3.59,0.68c-1.27,0.16-2.82,0.25-4.65,0.25c-4.09,0-7.14-0.83-9.13-2.48
		c-2-1.66-2.99-4.49-2.99-8.5V86.11h-4.32v-7.13h4.32V69.6h10.55v9.38h9.82v7.13h-9.82v11.65c0,1.15,0.01,2.16,0.03,3.01
		c0.02,0.86,0.17,1.63,0.47,2.31c0.27,0.68,0.75,1.22,1.44,1.62c0.69,0.4,1.69,0.6,3.02,0.6c0.54,0,1.26-0.12,2.14-0.35
		c0.88-0.23,1.5-0.45,1.85-0.64h0.87V111.51z"/>
	<linearGradient id="SVGID_12_" gradientUnits="userSpaceOnUse" x1="510.2881" y1="114.8868" x2="212.4354" y2="18.2553">
		<stop  offset="0" style="stop-color:#60A5FA"/>
		<stop  offset="1" style="stop-color:#1E40AF"/>
	</linearGradient>
	<path class="st11" d="M457.09,108.32c-0.57,0.43-1.27,0.95-2.1,1.55c-0.84,0.6-1.63,1.08-2.37,1.43c-1.03,0.47-2.1,0.81-3.21,1.04
		c-1.11,0.22-2.33,0.34-3.65,0.34c-3.12,0-5.73-0.96-7.83-2.89c-2.1-1.93-3.16-4.39-3.16-7.39c0-2.4,0.54-4.35,1.61-5.87
		c1.07-1.52,2.59-2.72,4.56-3.59c1.95-0.88,4.36-1.5,7.25-1.87c2.88-0.37,5.87-0.64,8.97-0.82v-0.18c0-1.81-0.74-3.06-2.22-3.76
		c-1.48-0.69-3.66-1.04-6.55-1.04c-1.73,0-3.59,0.31-5.55,0.92c-1.97,0.61-3.38,1.09-4.24,1.42h-0.96v-7.92
		c1.11-0.29,2.92-0.64,5.42-1.04c2.5-0.4,5.01-0.6,7.53-0.6c5.98,0,10.3,0.92,12.96,2.76c2.66,1.84,3.99,4.73,3.99,8.66v22.33
		h-10.43V108.32z M457.09,103.21V96.4c-1.42,0.12-2.96,0.28-4.62,0.48c-1.66,0.2-2.91,0.44-3.77,0.71
		c-1.05,0.33-1.86,0.81-2.41,1.44c-0.56,0.63-0.83,1.46-0.83,2.49c0,0.68,0.06,1.23,0.18,1.66c0.12,0.43,0.41,0.83,0.88,1.22
		c0.45,0.39,0.98,0.67,1.61,0.86c0.62,0.18,1.6,0.28,2.92,0.28c1.05,0,2.12-0.21,3.2-0.64
		C455.32,104.47,456.27,103.91,457.09,103.21z"/>
	<linearGradient id="SVGID_13_" gradientUnits="userSpaceOnUse" x1="514.0793" y1="103.201" x2="216.2266" y2="6.5695">
		<stop  offset="0" style="stop-color:#60A5FA"/>
		<stop  offset="1" style="stop-color:#1E40AF"/>
	</linearGradient>
	<path class="st12" d="M505.71,101.39c0,3.39-1.52,6.12-4.56,8.2c-3.04,2.07-7.2,3.11-12.48,3.11c-2.92,0-5.57-0.27-7.95-0.82
		c-2.38-0.55-4.29-1.15-5.73-1.81v-8.65h0.96c0.53,0.37,1.13,0.77,1.83,1.21c0.69,0.44,1.67,0.91,2.94,1.42
		c1.09,0.45,2.33,0.83,3.71,1.15c1.38,0.32,2.86,0.48,4.44,0.48c2.06,0,3.59-0.23,4.59-0.69c0.99-0.46,1.49-1.13,1.49-2.03
		c0-0.8-0.29-1.38-0.88-1.74c-0.58-0.36-1.69-0.71-3.33-1.04c-0.78-0.18-1.84-0.37-3.17-0.57s-2.55-0.45-3.64-0.75
		c-2.98-0.78-5.19-1.99-6.63-3.64c-1.44-1.65-2.16-3.7-2.16-6.15c0-3.16,1.49-5.78,4.49-7.88c2.99-2.09,7.08-3.14,12.26-3.14
		c2.45,0,4.81,0.25,7.06,0.75c2.25,0.5,4.01,1.03,5.27,1.59v8.3h-0.91c-1.56-1.07-3.34-1.94-5.33-2.62c-2-0.67-4.02-1.01-6.06-1.01
		c-1.69,0-3.12,0.23-4.28,0.7c-1.16,0.47-1.74,1.13-1.74,1.99c0,0.78,0.26,1.37,0.79,1.78s1.76,0.82,3.71,1.23
		c1.07,0.21,2.23,0.42,3.46,0.63c1.24,0.2,2.48,0.46,3.73,0.77c2.77,0.72,4.81,1.86,6.14,3.4
		C505.05,97.14,505.71,99.07,505.71,101.39z"/>
	<linearGradient id="SVGID_14_" gradientUnits="userSpaceOnUse" x1="473.4707" y1="228.3709" x2="175.6181" y2="131.7393">
		<stop  offset="0" style="stop-color:#60A5FA"/>
		<stop  offset="1" style="stop-color:#1E40AF"/>
	</linearGradient>
	<path class="st13" d="M284.04,148.52h-20.02v8.09h18.56v8.42h-18.56v18.59h-11.16V140.1h31.18V148.52z"/>
	<linearGradient id="SVGID_15_" gradientUnits="userSpaceOnUse" x1="475.6515" y1="221.649" x2="177.7989" y2="125.0174">
		<stop  offset="0" style="stop-color:#60A5FA"/>
		<stop  offset="1" style="stop-color:#1E40AF"/>
	</linearGradient>
	<path class="st14" d="M323.52,169.15h-24.08c0.16,2.57,1.13,4.54,2.94,5.9c1.8,1.36,4.46,2.05,7.96,2.05c2.22,0,4.37-0.4,6.46-1.2
		c2.08-0.8,3.73-1.66,4.94-2.57h1.17v8.45c-2.38,0.95-4.62,1.65-6.72,2.07s-4.43,0.64-6.98,0.64c-6.59,0-11.63-1.48-15.14-4.44
		c-3.51-2.96-5.26-7.18-5.26-12.65c0-5.42,1.66-9.71,4.98-12.87c3.32-3.17,7.88-4.75,13.66-4.75c5.34,0,9.35,1.35,12.04,4.05
		c2.69,2.7,4.03,6.58,4.03,11.65V169.15z M313.06,162.98c-0.06-2.2-0.6-3.86-1.64-4.97c-1.03-1.11-2.64-1.67-4.82-1.67
		c-2.03,0-3.69,0.53-5,1.58c-1.31,1.05-2.04,2.74-2.19,5.06H313.06z"/>
	<linearGradient id="SVGID_16_" gradientUnits="userSpaceOnUse" x1="480.2116" y1="207.5931" x2="182.359" y2="110.9615">
		<stop  offset="0" style="stop-color:#60A5FA"/>
		<stop  offset="1" style="stop-color:#1E40AF"/>
	</linearGradient>
	<path class="st15" d="M341.5,183.61h-10.55v-45.47h10.55V183.61z"/>
	<linearGradient id="SVGID_17_" gradientUnits="userSpaceOnUse" x1="482.1735" y1="201.5457" x2="184.3209" y2="104.9142">
		<stop  offset="0" style="stop-color:#60A5FA"/>
		<stop  offset="1" style="stop-color:#1E40AF"/>
	</linearGradient>
	<path class="st16" d="M362.24,146.12h-11.13v-7.98h11.13V146.12z M361.95,183.61H351.4V150.8h10.55V183.61z"/>
	<linearGradient id="SVGID_18_" gradientUnits="userSpaceOnUse" x1="483.337" y1="197.9594" x2="185.4844" y2="101.3278">
		<stop  offset="0" style="stop-color:#60A5FA"/>
		<stop  offset="1" style="stop-color:#1E40AF"/>
	</linearGradient>
	<path class="st17" d="M388.95,184.49c-2.86,0-5.48-0.34-7.85-1.02c-2.37-0.68-4.43-1.73-6.18-3.16c-1.73-1.42-3.08-3.21-4.03-5.38
		c-0.95-2.16-1.43-4.69-1.43-7.6c0-3.06,0.51-5.7,1.53-7.92s2.45-4.06,4.28-5.52c1.77-1.38,3.82-2.4,6.14-3.04
		c2.32-0.64,4.72-0.96,7.22-0.96c2.24,0,4.3,0.24,6.2,0.73c1.89,0.49,3.65,1.12,5.29,1.9v8.97h-1.49c-0.41-0.35-0.9-0.76-1.47-1.23
		c-0.57-0.47-1.28-0.93-2.11-1.37c-0.8-0.43-1.67-0.78-2.63-1.07c-0.95-0.28-2.06-0.42-3.33-0.42c-2.8,0-4.96,0.89-6.46,2.67
		c-1.51,1.78-2.26,4.2-2.26,7.26c0,3.16,0.77,5.55,2.32,7.19c1.55,1.64,3.74,2.45,6.58,2.45c1.32,0,2.51-0.15,3.57-0.45
		c1.06-0.3,1.94-0.66,2.64-1.07c0.66-0.39,1.24-0.8,1.75-1.23c0.51-0.43,0.97-0.85,1.4-1.26h1.49v8.97
		c-1.66,0.78-3.38,1.4-5.19,1.86C393.13,184.26,391.14,184.49,388.95,184.49z"/>
	<linearGradient id="SVGID_19_" gradientUnits="userSpaceOnUse" x1="486.6856" y1="187.638" x2="188.833" y2="91.0064">
		<stop  offset="0" style="stop-color:#60A5FA"/>
		<stop  offset="1" style="stop-color:#1E40AF"/>
	</linearGradient>
	<path class="st18" d="M439.39,169.15h-24.08c0.16,2.57,1.13,4.54,2.94,5.9c1.8,1.36,4.46,2.05,7.96,2.05c2.22,0,4.37-0.4,6.46-1.2
		c2.08-0.8,3.73-1.66,4.94-2.57h1.17v8.45c-2.38,0.95-4.62,1.65-6.72,2.07s-4.43,0.64-6.98,0.64c-6.59,0-11.63-1.48-15.14-4.44
		c-3.51-2.96-5.26-7.18-5.26-12.65c0-5.42,1.66-9.71,4.98-12.87c3.32-3.17,7.88-4.75,13.66-4.75c5.34,0,9.35,1.35,12.04,4.05
		c2.69,2.7,4.03,6.58,4.03,11.65V169.15z M428.93,162.98c-0.06-2.2-0.6-3.86-1.64-4.97c-1.03-1.11-2.64-1.67-4.82-1.67
		c-2.03,0-3.69,0.53-5,1.58c-1.31,1.05-2.04,2.74-2.19,5.06H428.93z"/>
	<linearGradient id="SVGID_20_" gradientUnits="userSpaceOnUse" x1="490.1055" y1="177.0966" x2="192.2529" y2="80.465">
		<stop  offset="0" style="stop-color:#60A5FA"/>
		<stop  offset="1" style="stop-color:#1E40AF"/>
	</linearGradient>
	<path class="st19" d="M475.34,173.21c0,3.39-1.52,6.12-4.56,8.2c-3.04,2.07-7.2,3.11-12.48,3.11c-2.92,0-5.57-0.27-7.95-0.82
		c-2.38-0.55-4.29-1.15-5.73-1.81v-8.65h0.96c0.53,0.37,1.13,0.77,1.83,1.21c0.69,0.44,1.67,0.91,2.94,1.42
		c1.09,0.45,2.33,0.83,3.71,1.15c1.38,0.32,2.86,0.48,4.44,0.48c2.06,0,3.59-0.23,4.59-0.69c0.99-0.46,1.49-1.13,1.49-2.03
		c0-0.8-0.29-1.38-0.88-1.74c-0.58-0.36-1.69-0.71-3.33-1.04c-0.78-0.18-1.84-0.37-3.17-0.57s-2.55-0.45-3.64-0.75
		c-2.98-0.78-5.19-1.99-6.63-3.64c-1.44-1.65-2.16-3.7-2.16-6.15c0-3.16,1.49-5.78,4.49-7.88c2.99-2.09,7.08-3.14,12.26-3.14
		c2.45,0,4.81,0.25,7.06,0.75c2.25,0.5,4.01,1.03,5.27,1.59v8.3h-0.91c-1.56-1.07-3.34-1.94-5.33-2.62s-4.02-1.01-6.06-1.01
		c-1.69,0-3.12,0.23-4.28,0.7c-1.16,0.47-1.74,1.13-1.74,1.99c0,0.78,0.26,1.37,0.79,1.78c0.53,0.41,1.76,0.82,3.71,1.23
		c1.07,0.21,2.23,0.42,3.46,0.63c1.24,0.2,2.48,0.46,3.73,0.77c2.77,0.72,4.81,1.86,6.14,3.4
		C474.67,168.96,475.34,170.89,475.34,173.21z"/>
</g>
</svg>
