<?xml version="1.0" encoding="utf-8"?>
<!-- Generator: Adobe Illustrator 24.1.1, SVG Export Plug-In . SVG Version: 6.00 Build 0)  -->
<svg version="1.1" id="Capa_1" xmlns="http://www.w3.org/2000/svg" xmlns:xlink="http://www.w3.org/1999/xlink" x="0px" y="0px"
	 viewBox="0 0 1021.18 336.81" style="enable-background:new 0 0 1021.18 336.81;" xml:space="preserve">
<style type="text/css">
	.st0{fill:url(#SVGID_1_);}
	.st1{fill:url(#SVGID_2_);}
	.st2{fill:url(#SVGID_3_);}
	.st3{fill:url(#SVGID_4_);}
	.st4{fill:url(#SVGID_5_);}
	.st5{fill:url(#SVGID_6_);}
	.st6{fill:url(#SVGID_7_);}
	.st7{fill:url(#SVGID_8_);}
	.st8{fill:url(#SVGID_9_);}
	.st9{fill:url(#SVGID_10_);}
</style>
<g>
	<linearGradient id="SVGID_1_" gradientUnits="userSpaceOnUse" x1="268.257" y1="237.0784" x2="877.348" y2="41.6239">
		<stop  offset="0" style="stop-color:#60A5FA"/>
		<stop  offset="1" style="stop-color:#1E40AF"/>
	</linearGradient>
	<path class="st0" d="M374.51,258.83c5.59,0,10.2-0.46,13.84-1.4c3.64-0.93,6.56-2.2,8.76-3.81c2.2-1.61,3.72-3.51,4.57-5.71
		c0.85-2.2,1.27-4.66,1.27-7.37c0-5.75-2.71-10.54-8.13-14.35c-5.42-3.81-14.73-7.91-27.94-12.32c-5.76-2.03-11.52-4.36-17.27-6.99
		c-5.76-2.62-10.92-5.92-15.49-9.91c-4.57-3.98-8.3-8.8-11.18-14.48c-2.88-5.67-4.32-12.57-4.32-20.7s1.52-15.45,4.57-21.97
		c3.05-6.52,7.37-12.06,12.95-16.64c5.59-4.57,12.36-8.08,20.32-10.54c7.96-2.45,16.93-3.68,26.92-3.68
		c11.85,0,22.1,1.27,30.73,3.81c8.64,2.54,15.75,5.33,21.34,8.38l-11.43,31.24c-4.91-2.54-10.37-4.78-16.38-6.73
		c-6.01-1.94-13.25-2.92-21.72-2.92c-9.49,0-16.3,1.31-20.45,3.94c-4.15,2.63-6.22,6.65-6.22,12.07c0,3.22,0.76,5.93,2.29,8.13
		c1.52,2.2,3.68,4.19,6.48,5.97c2.79,1.78,6.01,3.39,9.65,4.83c3.64,1.44,7.66,2.92,12.06,4.44c9.14,3.39,17.1,6.73,23.88,10.03
		c6.77,3.3,12.4,7.16,16.89,11.56c4.48,4.41,7.83,9.57,10.03,15.49c2.2,5.93,3.3,13.12,3.3,21.59c0,16.43-5.76,29.17-17.27,38.23
		c-11.52,9.06-28.87,13.59-52.07,13.59c-7.79,0-14.82-0.47-21.08-1.4c-6.27-0.93-11.81-2.08-16.64-3.43s-8.98-2.79-12.45-4.32
		c-3.47-1.52-6.39-2.96-8.76-4.32l11.18-31.5c5.25,2.88,11.72,5.46,19.43,7.75C353.89,257.69,363.33,258.83,374.51,258.83z"/>
	<linearGradient id="SVGID_2_" gradientUnits="userSpaceOnUse" x1="276.5367" y1="262.8802" x2="885.6276" y2="67.4256">
		<stop  offset="0" style="stop-color:#60A5FA"/>
		<stop  offset="1" style="stop-color:#1E40AF"/>
	</linearGradient>
	<path class="st1" d="M513.19,116.85c0,6.95-2.25,12.41-6.73,16.38c-4.49,3.98-9.78,5.97-15.88,5.97c-6.1,0-11.39-1.99-15.88-5.97
		c-4.49-3.98-6.73-9.44-6.73-16.38c0-6.94,2.24-12.4,6.73-16.38c4.48-3.98,9.78-5.97,15.88-5.97c6.1,0,11.39,1.99,15.88,5.97
		C510.94,104.44,513.19,109.9,513.19,116.85z M509.63,289.06h-37.85v-133.6h37.85V289.06z"/>
	<linearGradient id="SVGID_3_" gradientUnits="userSpaceOnUse" x1="301.5579" y1="340.8533" x2="910.6489" y2="145.3988">
		<stop  offset="0" style="stop-color:#60A5FA"/>
		<stop  offset="1" style="stop-color:#1E40AF"/>
	</linearGradient>
	<path class="st2" d="M660.5,272.29c0,21.84-5.55,38.06-16.64,48.64c-11.09,10.58-28.24,15.88-51.44,15.88
		c-8.13,0-16.26-0.72-24.38-2.16c-8.13-1.44-15.67-3.34-22.61-5.71l6.6-31.75c5.92,2.37,12.15,4.23,18.67,5.59
		c6.52,1.35,13.93,2.03,22.23,2.03c10.83,0,18.5-2.37,22.99-7.11c4.48-4.74,6.73-10.83,6.73-18.29v-4.83
		c-4.06,1.87-8.25,3.26-12.57,4.19c-4.32,0.93-9.02,1.4-14.1,1.4c-18.46,0-32.6-5.46-42.42-16.38
		c-9.82-10.92-14.73-26.2-14.73-45.85c0-9.82,1.52-18.75,4.57-26.8c3.05-8.04,7.49-14.94,13.33-20.7
		c5.84-5.75,12.99-10.2,21.46-13.33c8.47-3.13,18.03-4.7,28.7-4.7c4.57,0,9.27,0.21,14.1,0.63c4.83,0.42,9.61,0.98,14.35,1.65
		c4.74,0.68,9.27,1.48,13.59,2.41c4.32,0.93,8.17,1.91,11.56,2.92V272.29z M577.45,217.94c0,21.17,8.55,31.75,25.65,31.75
		c3.89,0,7.53-0.51,10.92-1.52c3.39-1.02,6.26-2.2,8.64-3.56v-60.45c-1.87-0.34-4.06-0.64-6.6-0.89c-2.54-0.25-5.51-0.38-8.89-0.38
		c-9.99,0-17.44,3.3-22.35,9.91C579.9,199.4,577.45,207.78,577.45,217.94z"/>
	<linearGradient id="SVGID_4_" gradientUnits="userSpaceOnUse" x1="313.1696" y1="377.0383" x2="922.2604" y2="181.5838">
		<stop  offset="0" style="stop-color:#60A5FA"/>
		<stop  offset="1" style="stop-color:#1E40AF"/>
	</linearGradient>
	<path class="st3" d="M769.47,218.19c0-12.19-1.57-20.83-4.7-25.91c-3.14-5.08-8.51-7.62-16.13-7.62c-2.37,0-4.83,0.13-7.37,0.38
		c-2.54,0.25-5,0.55-7.37,0.89v103.12h-37.85V160.03c3.21-0.85,6.99-1.73,11.3-2.67c4.32-0.93,8.89-1.78,13.72-2.54
		c4.83-0.76,9.78-1.35,14.86-1.78c5.08-0.42,10.07-0.63,14.99-0.63c9.65,0,17.48,1.23,23.5,3.68c6.01,2.46,10.96,5.38,14.86,8.76
		c5.42-3.89,11.64-6.94,18.67-9.14c7.02-2.2,13.5-3.3,19.43-3.3c10.67,0,19.43,1.48,26.29,4.44c6.86,2.96,12.32,7.16,16.38,12.57
		c4.06,5.42,6.86,11.85,8.38,19.3c1.52,7.45,2.29,15.75,2.29,24.89v75.44h-37.85v-70.87c0-12.19-1.57-20.83-4.7-25.91
		c-3.13-5.08-8.51-7.62-16.13-7.62c-2.03,0-4.87,0.51-8.51,1.52c-3.64,1.02-6.65,2.29-9.02,3.81c1.18,3.9,1.94,8,2.29,12.32
		c0.34,4.32,0.51,8.93,0.51,13.84v72.9h-37.85V218.19z"/>
	<linearGradient id="SVGID_5_" gradientUnits="userSpaceOnUse" x1="329.2999" y1="427.3049" x2="938.3907" y2="231.8503">
		<stop  offset="0" style="stop-color:#60A5FA"/>
		<stop  offset="1" style="stop-color:#1E40AF"/>
	</linearGradient>
	<path class="st4" d="M963.02,151.9c11.18,0,20.49,1.27,27.94,3.81c7.45,2.54,13.42,6.18,17.91,10.92
		c4.49,4.74,7.66,10.5,9.53,17.27c1.86,6.77,2.79,14.31,2.79,22.61v78.74c-5.42,1.19-12.95,2.58-22.61,4.19
		c-9.65,1.61-21.34,2.41-35.05,2.41c-8.64,0-16.47-0.76-23.5-2.29c-7.03-1.52-13.08-4.02-18.16-7.49c-5.08-3.47-8.98-8-11.68-13.59
		c-2.71-5.59-4.06-12.45-4.06-20.57c0-7.79,1.56-14.39,4.7-19.81c3.13-5.42,7.32-9.73,12.57-12.95c5.25-3.21,11.26-5.54,18.03-6.99
		c6.77-1.44,13.8-2.16,21.08-2.16c4.91,0,9.27,0.21,13.08,0.63c3.81,0.42,6.9,0.98,9.27,1.65v-3.56c0-6.43-1.95-11.6-5.84-15.49
		c-3.9-3.89-10.67-5.84-20.32-5.84c-6.44,0-12.79,0.47-19.05,1.4c-6.27,0.93-11.68,2.25-16.26,3.94l-4.83-30.48
		c2.2-0.67,4.95-1.4,8.25-2.16c3.3-0.76,6.9-1.44,10.79-2.03c3.89-0.59,8-1.1,12.32-1.52C954.25,152.11,958.61,151.9,963.02,151.9z
		 M966.06,262.64c3.72,0,7.28-0.08,10.67-0.25c3.39-0.17,6.1-0.42,8.13-0.76v-28.7c-1.52-0.34-3.81-0.67-6.86-1.02
		c-3.05-0.34-5.84-0.51-8.38-0.51c-3.56,0-6.9,0.21-10.03,0.63c-3.14,0.42-5.89,1.23-8.26,2.41c-2.37,1.19-4.23,2.79-5.59,4.83
		c-1.36,2.03-2.03,4.57-2.03,7.62c0,5.93,1.99,10.03,5.97,12.32C953.66,261.5,959.12,262.64,966.06,262.64z"/>
</g>
<g>
	<linearGradient id="SVGID_6_" gradientUnits="userSpaceOnUse" x1="164.5216" y1="381.9296" x2="160.7403" y2="30.2644">
		<stop  offset="0" style="stop-color:#60A5FA"/>
		<stop  offset="1" style="stop-color:#1E40AF"/>
	</linearGradient>
	<path class="st5" d="M62.58,320.47c14.8-5.99,29.75-0.89,44.65-0.09c6.94,0.37,15.58,4.73,19.65-3.74
		c3.87-8.07-2.66-14.08-8.01-19.6c-4.66-4.81-10.68-9.06-7.34-20.72c8.57,16.84,22.58,14.76,35.93,15.6
		c3.76,0.23,8.46,2.91,10.75,5.96c7.68,10.23,17.7,13.44,29.67,11.65c35.33-5.27,65.32-18.9,81.71-53.27
		c0.99-2.08,1.86-4.23,2.52-6.43c0.24-0.79-0.31-1.81-0.7-3.67c-7.63,7.02-14.54,13.85-21.97,20.07
		c-10.16,8.51-22.15,10.77-34.37,6.12c-8.69-3.31-15.81-4.2-22.34,4.55c11.87-12.27,4.79-25.03,3.62-39.8
		c-4.01,3.48-6.43,5.48-8.73,7.6c-20.55,18.9-43.9,24.2-70.64,15.43c-3.59-1.18-8.28,0.97-12.44,1.66c-0.59,0.1-1.08,0.74-1.62,1.11
		c-28.92,19.82-45.69,8.34-54.61-23.49c-5.31-18.95,0.03-37.37,7.44-54.93c15-35.57,37.14-65.28,70.75-85.66
		c13.62-8.26,27.64-10.49,42.7-5.71c56.83,18.05,94.4,55.93,107.84,113.65c9.16,39.35-7.1,73.12-38.24,98.09
		c-41.02,32.88-87.45,39.26-137.47,24.36C88.76,325.46,75.72,323.38,62.58,320.47z M156.96,215.73c5.09,3.49,9.1,0.94,12.77-4
		c3.74-5.04,7.28-10.28,11.49-14.9c7.64-8.4,12.51-17.53,7.14-28.71c-5.55-11.55-15.68-17.41-28.17-16.51
		c-14.36,1.04-29.04,2.38-42.73,6.45c-12.95,3.85-25.42,11.87-28.02,26.51c-1.4,7.86-4.84,12.55-10.29,16.82
		c-4.15,3.25-9.02,5.64-12.91,9.15c-2.43,2.19-5.57,6.17-5.04,8.64c3.22,15.16,15.99,32.88,36.17,27.98
		c5.69-1.38,11.4-2.64,17.11-3.96c-0.44,1.16-0.88,2.32-1.32,3.47c3.9,3.07,7.37,7.8,11.77,8.94c20.81,5.39,39.25-0.96,55.17-14.37
		c14.77-12.44,15.47-25.73,3.41-41.38C173.31,202.99,173.31,224.71,156.96,215.73z M218.62,187.92c-0.89-0.09-1.78-0.17-2.67-0.26
		c-0.92,3.62-1.44,7.41-2.87,10.82c-1.1,2.62-3.08,6.54-5.1,6.81c-6.44,0.88-6.1,4.96-5.91,9.38c0.11,2.56,1.34,5.61,0.37,7.6
		c-5.36,10.98-1.26,21.01,1.44,31.67c2.84,11.21,10.14,15.66,20.04,15.22c8.33-0.37,16.87-2.73,24.65-5.86
		c3.45-1.39,5.43-6.74,7.77-10.49c2.03-3.26,2.87-7.59,5.52-10.07c10.52-9.8,8.52-23.38-4.43-28.34c-2.66-1.02-4.7-3.55-7.29-4.9
		c-4.56-2.38-9.33-6.2-13.98-6.15c-8.79,0.09-13.72-2.62-15.13-11.41C220.82,190.51,219.45,189.26,218.62,187.92z"/>
	<linearGradient id="SVGID_7_" gradientUnits="userSpaceOnUse" x1="193.7524" y1="381.6153" x2="189.9711" y2="29.9501">
		<stop  offset="0" style="stop-color:#60A5FA"/>
		<stop  offset="1" style="stop-color:#1E40AF"/>
	</linearGradient>
	<path class="st6" d="M187.1,89.77c-13.09-1.59-21.66-7.69-27.57-17.7c-11.22-19.02-6.63-47.09,9.8-61.86
		c19.66-17.67,44.95-11.76,54.49,12.73c7.36,18.9,1.16,44.39-14.97,56.51C202.56,84.17,194.4,86.4,187.1,89.77z"/>
	<linearGradient id="SVGID_8_" gradientUnits="userSpaceOnUse" x1="102.1808" y1="382.5999" x2="98.3995" y2="30.9347">
		<stop  offset="0" style="stop-color:#60A5FA"/>
		<stop  offset="1" style="stop-color:#1E40AF"/>
	</linearGradient>
	<path class="st7" d="M61.63,51.54c-0.08-21.13,4.5-33.11,18.13-39.29c14.07-6.38,26.6-1.54,37.22,8.16
		c14.56,13.29,21.57,29.99,17.64,49.7c-5.48,27.48-31.4,35.99-53.28,18.02C68.46,77.55,61.55,62.27,61.63,51.54z"/>
	<linearGradient id="SVGID_9_" gradientUnits="userSpaceOnUse" x1="266.9751" y1="380.8279" x2="263.1938" y2="29.1628">
		<stop  offset="0" style="stop-color:#60A5FA"/>
		<stop  offset="1" style="stop-color:#1E40AF"/>
	</linearGradient>
	<path class="st8" d="M301,83.39c-0.17,24.02-19.77,44.14-42.94,44.07c-18.73-0.06-31.54-13.56-31.39-33.08
		c0.2-24.51,20.14-45.11,43.42-44.85C288.21,49.73,301.14,63.89,301,83.39z"/>
	<linearGradient id="SVGID_10_" gradientUnits="userSpaceOnUse" x1="40.1164" y1="383.2673" x2="36.335" y2="31.6021">
		<stop  offset="0" style="stop-color:#60A5FA"/>
		<stop  offset="1" style="stop-color:#1E40AF"/>
	</linearGradient>
	<path class="st9" d="M0,109.18C0.06,91.22,12.79,78.8,30.77,79.14c22.06,0.43,42.4,20.1,43.66,42.21
		c1.34,23.55-19.33,38.57-42.87,31.16C12.79,146.62-0.06,128.96,0,109.18z"/>
</g>
</svg>
